PathFileType	4	(x/y/z)	S06_P20_T62
DataRate	CameraRate	NumFrames	NumMarkers	Units	OrigDataRate	OrigDataStartFrame	OrigNumFrames
240	240	9	51	mm	240	174	347
Frame#	Time	Sternum			R.Acromium			L.Acromium			Top.Head			R.ASIS			L.ASIS			R.PSIS			L.PSIS			R.Great.Tro			L.Great.Tro			R.Iliac.Crest			L.Iliac.Crest			V.Sacral			R.Thigh.Upper.Post			R.Thigh.Lower.Ant			R.Thigh.Lower.Post			R.Thigh.Upper.Ant			R.Knee.Lat			R.Knee.Med			R.Shank.Upper.Post			R.Shank.Lower.Ant			R.Shank.Lower.Post			R.Shank.Upper.Ant			R.Ankle.Lat			R.Ankle.Med			R.Heel.Upper			R.Heel.Med			R.Heel.Lat			R.Toe.Lat			R.Toe.Med			R.Toe.Tip			L.Thigh.Upper.Post			L.Thigh.Lower.Ant			L.Thigh.Lower.Post			L.Thigh.Upper.Ant			L.Knee.Lat			L.Knee.Med			L.Shank.Upper.Post			L.Shank.Lower.Ant			L.Shank.Lower.Post			L.Shank.Upper.Ant			L.Ankle.Lat			L.Ankle.Med			L.Heel.Upper			L.Heel.Med			L.Heel.Lat			L.Toe.Lat			L.Toe.Med			L.Toe.Tip			Cervical.Spine			Back			
		X1	Y1	Z1	X2	Y2	Z2	X3	Y3	Z3	X4	Y4	Z4	X5	Y5	Z5	X6	Y6	Z6	X7	Y7	Z7	X8	Y8	Z8	X9	Y9	Z9	X10	Y10	Z10	X11	Y11	Z11	X12	Y12	Z12	X13	Y13	Z13	X14	Y14	Z14	X15	Y15	Z15	X16	Y16	Z16	X17	Y17	Z17	X18	Y18	Z18	X19	Y19	Z19	X20	Y20	Z20	X21	Y21	Z21	X22	Y22	Z22	X23	Y23	Z23	X24	Y24	Z24	X25	Y25	Z25	X26	Y26	Z26	X27	Y27	Z27	X28	Y28	Z28	X29	Y29	Z29	X30	Y30	Z30	X31	Y31	Z31	X32	Y32	Z32	X33	Y33	Z33	X34	Y34	Z34	X35	Y35	Z35	X36	Y36	Z36	X37	Y37	Z37	X38	Y38	Z38	X39	Y39	Z39	X40	Y40	Z40	X41	Y41	Z41	X42	Y42	Z42	X43	Y43	Z43	X44	Y44	Z44	X45	Y45	Z45	X46	Y46	Z46	X47	Y47	Z47	X48	Y48	Z48	X49	Y49	Z49	X50	Y50	Z50	X51	Y51	Z51	

174	0.72083	-343.96	1288.5	348.49	-457.09	1500.7	519.66	-468.02	1500.4	166.79	-467.55	1816.2	336.34	-406.06	1061.2	477.88	-398.34	1053	223.51	NaN	NaN	NaN	-600.61	1083.2	297.57	-465.65	994.42	523.52	-483.57	983.16	166.68	-489.57	1136.9	504.78	-466.56	1127.3	185.21	-615.98	1050	342.57	-449.22	738.99	509.75	-388.45	662.02	475.63	-457.03	652.6	487.03	-378.77	750.75	495.34	-432.12	542.67	470.31	-420.4	551.13	342.98	-506.4	322.09	457.65	-454.65	251.21	436.29	-521.74	247.68	439.42	-441.31	324.35	453.28	-505.54	108.35	412.29	-487.29	120.89	323.98	-574.88	74.702	356.45	-565.9	44.792	324.29	-566.01	41.614	389.81	-388.67	33.867	433.51	-362.59	55.233	315.01	-296.27	64.702	363.32	-317.67	759.52	177.75	-245.75	702.49	239.02	-298.27	670.81	188.87	-273.08	793.15	224.21	-295.41	579.16	203.41	-272.77	581.62	326.93	-451.76	425.11	200.29	-436.47	337.67	204.22	-499.69	370.15	212.39	-393.08	393.75	197.13	-546.15	234.97	206.58	-547.44	227.51	299.53	-637.05	236.91	246.22	-650.28	208.08	273.72	-641.69	216.56	213.05	-487.59	125.43	180.45	-483.09	105.6	297.83	-407.17	90.446	251.31	-518.8	1555.5	345.01	-584.32	1287.1	344.19
175	0.725	-338.75	1288.8	348.54	-451.69	1501	519.77	-463.06	1500.6	166.94	-462.13	1816.4	336.36	-400.86	1061.3	478.08	-393.18	1053.4	223.73	NaN	NaN	NaN	-595.38	1083.3	297.68	-460.55	994.59	523.72	-478.2	983.51	166.82	-484.18	1137.2	504.92	-461.47	1127.6	185.4	-610.71	1050.2	342.75	-445.71	739.06	509.84	-385.44	661.76	475.64	-454.02	652.71	487.17	-375.16	750.42	495.37	-429.98	542.57	470.34	-418.15	551	342.98	-505.23	322.24	457.66	-453.84	251.16	436.23	-520.87	247.91	439.46	-440.13	324.24	453.28	-505.32	108.45	412.28	-487.15	121.01	323.96	-574.8	74.87	356.41	-565.86	44.923	324.27	-565.94	41.776	389.8	-388.62	33.755	433.54	-362.52	55.141	315.02	-296.16	64.419	363.35	-311.01	760.9	178.24	-238.65	704.39	239.53	-290.99	672.29	189.45	-266.52	794.86	224.59	-287.37	580.65	203.99	-264.69	583.47	327.37	-440.71	423.36	201	-423.59	336.26	204.67	-487.39	367.39	213.15	-381.42	393.24	197.58	-530.98	231.16	207.19	-531.82	223.51	300.13	-621.78	230.78	247.07	-634.24	201.58	274.57	-625.99	210.36	213.91	-469.8	123.1	180.76	-464.49	103.29	298.13	-388.39	90.027	251.37	-513.61	1555.7	345.22	-579.05	1287.3	344.52
176	0.72917	-333.53	1289.1	348.59	-446.29	1501.3	519.89	-458.09	1500.8	167.08	-456.72	1816.6	336.37	-395.66	1061.4	478.27	-388	1053.7	223.94	NaN	NaN	NaN	-590.13	1083.5	297.79	-455.44	994.73	523.91	-472.83	983.81	166.95	-478.75	1137.5	505.07	-456.38	1127.8	185.58	-605.42	1050.3	342.93	-442.21	739.12	509.92	-382.45	661.49	475.62	-451.02	652.81	487.29	-371.57	750.07	495.39	-427.86	542.45	470.35	-415.93	550.87	342.95	-504.06	322.39	457.66	-453.03	251.11	436.15	-520	248.13	439.48	-438.96	324.13	453.26	-505.1	108.56	412.24	-487.02	121.12	323.93	-574.72	75.035	356.37	-565.79	45.049	324.25	-565.87	41.939	389.79	-388.58	33.647	433.55	-362.45	55.034	315.03	-296.06	64.131	363.38	-304.47	762.18	178.71	-231.69	706.14	240	-283.91	673.65	190.01	-260.04	796.43	224.93	-279.53	582.02	204.56	-256.8	585.2	327.77	-429.67	421.42	201.7	-410.64	334.71	205.15	-475.02	364.43	213.92	-369.75	392.6	198.05	-515.61	227.17	207.86	-515.99	219.39	300.78	-606.24	224.45	247.97	-617.92	194.91	275.47	-610.01	203.94	214.82	-451.79	120.67	181.19	-445.64	100.97	298.56	-369.42	89.6	251.57	-508.42	1555.8	345.43	-573.77	1287.5	344.86
177	0.73333	-328.29	1289.4	348.64	-440.89	1501.6	520	-453.12	1500.9	167.22	-451.32	1816.8	336.36	-390.43	1061.5	478.45	-382.81	1053.9	224.14	NaN	NaN	NaN	-584.87	1083.6	297.9	-450.32	994.84	524.1	-467.46	984.08	167.07	-473.31	1137.7	505.21	-451.28	1128	185.75	-600.11	1050.5	343.09	-438.72	739.15	509.98	-379.47	661.21	475.58	-448.04	652.89	487.38	-367.98	749.69	495.38	-425.74	542.32	470.34	-413.73	550.73	342.89	-502.88	322.53	457.65	-452.23	251.06	436.03	-519.12	248.34	439.5	-437.8	324.02	453.22	-504.87	108.66	412.19	-486.89	121.21	323.88	-574.63	75.196	356.33	-565.7	45.172	324.23	-565.79	42.102	389.78	-388.54	33.544	433.56	-362.39	54.909	315.02	-295.95	63.835	363.4	-298.05	763.34	179.16	-224.87	707.74	240.43	-277.02	674.89	190.58	-253.64	797.86	225.23	-271.89	583.27	205.1	-249.1	586.82	328.14	-418.61	419.29	202.38	-397.63	333.04	205.67	-462.59	361.28	214.69	-358.09	391.84	198.54	-500.03	223.02	208.58	-499.95	215.17	301.48	-590.46	217.95	248.92	-601.3	188.1	276.43	-593.74	197.34	215.79	-433.55	118.14	181.72	-426.56	98.666	299.1	-350.28	89.188	251.88	-503.22	1556	345.64	-568.49	1287.6	345.21
178	0.7375	-323.04	1289.7	348.69	-435.48	1501.8	520.11	-448.14	1501	167.36	-445.91	1817	336.35	-385.19	1061.5	478.63	-377.6	1054.2	224.33	NaN	NaN	NaN	-579.6	1083.6	298.02	-445.2	994.9	524.28	-462.09	984.3	167.19	-467.85	1137.9	505.35	-446.17	1128.1	185.91	-594.78	1050.6	343.25	-435.24	739.16	510.03	-376.51	660.9	475.51	-445.06	652.96	487.46	-364.4	749.3	495.34	-423.64	542.18	470.31	-411.57	550.59	342.82	-501.7	322.66	457.63	-451.44	251	435.88	-518.24	248.55	439.5	-436.64	323.89	453.15	-504.64	108.77	412.13	-486.77	121.29	323.81	-574.54	75.354	356.28	-565.58	45.291	324.23	-565.71	42.267	389.76	-388.5	33.443	433.56	-362.34	54.763	315.01	-295.85	63.53	363.4	-291.76	764.39	179.61	-218.2	709.17	240.81	-270.32	676	191.13	-247.32	799.14	225.48	-264.47	584.39	205.63	-241.61	588.32	328.47	-407.56	416.98	203.04	-384.56	331.25	206.22	-450.08	357.95	215.46	-346.43	390.96	199.04	-484.26	218.74	209.35	-483.71	210.89	302.24	-574.42	211.31	249.91	-584.41	181.19	277.46	-577.19	190.58	216.82	-415.11	115.56	182.35	-407.26	96.397	299.76	-330.97	88.812	252.32	-498.01	1556.1	345.84	-563.2	1287.7	345.56
179	0.74167	-317.77	1289.9	348.74	-430.07	1501.9	520.23	-443.14	1501.1	167.49	-440.51	1817.1	336.34	-379.94	1061.5	478.8	-372.38	1054.3	224.51	NaN	NaN	NaN	-574.31	1083.7	298.14	-440.07	994.93	524.46	-456.72	984.49	167.3	-462.37	1138	505.48	-441.04	1128.2	186.06	-589.43	1050.6	343.4	-431.75	739.15	510.05	-373.57	660.58	475.42	-442.08	653	487.51	-360.83	748.88	495.29	-421.53	542.03	470.27	-409.42	550.43	342.72	-500.5	322.78	457.59	-450.66	250.92	435.7	-517.35	248.75	439.49	-435.48	323.77	453.06	-504.4	108.89	412.05	-486.64	121.34	323.73	-574.44	75.508	356.22	-565.44	45.406	324.23	-565.63	42.433	389.73	-388.46	33.345	433.55	-362.3	54.594	314.98	-295.75	63.215	363.4	-285.59	765.31	180.04	-211.67	710.44	241.17	-263.81	676.97	191.69	-241.09	800.27	225.71	-257.25	585.38	206.14	-234.32	589.69	328.77	-396.5	414.5	203.68	-371.43	329.37	206.8	-437.51	354.47	216.24	-334.79	389.98	199.55	-468.29	214.36	210.17	-467.27	206.55	303.05	-558.13	204.56	250.96	-567.23	174.19	278.56	-560.36	183.69	217.9	-396.48	112.94	183.09	-387.76	94.19	300.52	-311.52	88.496	252.87	-492.8	1556.1	346.04	-557.89	1287.8	345.91
180	0.74583	-312.49	1290	348.78	-424.65	1502.1	520.34	-438.14	1501.1	167.62	-435.12	1817.2	336.31	-374.66	1061.4	478.95	-367.14	1054.5	224.68	NaN	NaN	NaN	-569.02	1083.7	298.28	-434.94	994.91	524.63	-451.35	984.64	167.4	-456.88	1138.1	505.61	-435.87	1128.3	186.21	-584.06	1050.7	343.54	-428.27	739.11	510.06	-370.63	660.24	475.3	-439.11	653.03	487.54	-357.27	748.44	495.21	-419.43	541.86	470.19	-407.3	550.25	342.6	-499.3	322.89	457.54	-449.88	250.84	435.5	-516.45	248.94	439.46	-434.31	323.64	452.94	-504.16	109	411.95	-486.51	121.37	323.63	-574.33	75.658	356.15	-565.28	45.517	324.23	-565.55	42.601	389.71	-388.42	33.25	433.53	-362.27	54.399	314.94	-295.65	62.887	363.39	-279.54	766.11	180.46	-205.29	711.53	241.49	-257.5	677.8	192.24	-234.94	801.24	225.91	-250.23	586.23	206.63	-227.25	590.92	329.04	-385.44	411.86	204.31	-358.26	327.41	207.42	-424.88	350.85	217.02	-323.16	388.9	200.08	-452.14	209.89	211.05	-450.64	202.19	303.91	-541.6	197.73	252.05	-549.78	167.15	279.73	-543.26	176.71	219.04	-377.66	110.31	183.91	-368.08	92.07	301.39	-291.94	88.262	253.52	-487.58	1556.2	346.23	-552.58	1287.8	346.26
181	0.75	-307.18	1290.2	348.83	-419.22	1502.2	520.45	-433.12	1501.1	167.74	-429.74	1817.3	336.29	-369.37	1061.2	479.1	-361.88	1054.5	224.83	NaN	NaN	NaN	-563.7	1083.7	298.41	-429.8	994.86	524.79	-445.98	984.74	167.51	-451.37	1138.2	505.75	-430.67	1128.3	186.35	-578.67	1050.7	343.68	-424.78	739.04	510.05	-367.69	659.87	475.16	-436.15	653.03	487.54	-353.71	747.97	495.11	-417.32	541.68	470.1	-405.19	550.07	342.47	-498.08	322.99	457.47	-449.1	250.75	435.27	-515.53	249.12	439.42	-433.14	323.5	452.8	-503.91	109.12	411.83	-486.36	121.38	323.51	-574.21	75.805	356.08	-565.1	45.624	324.24	-565.46	42.772	389.67	-388.38	33.157	433.5	-362.24	54.178	314.89	-295.55	62.546	363.37	-273.61	766.78	180.87	-199.06	712.45	241.79	-251.39	678.5	192.78	-228.9	802.06	226.08	-243.43	586.94	207.11	-220.39	592.01	329.29	-374.38	409.08	204.93	-345.05	325.39	208.07	-412.18	347.1	217.8	-311.55	387.73	200.62	-435.8	205.37	211.97	-433.83	197.84	304.82	-524.84	190.85	253.19	-532.07	160.09	280.97	-525.89	169.66	220.25	-358.68	107.7	184.83	-348.25	90.065	302.34	-272.26	88.134	254.27	-482.34	1556.2	346.42	-547.25	1287.8	346.61
182	0.75417	-301.86	1290.3	348.87	-413.79	1502.3	520.55	-428.08	1501	167.86	-424.36	1817.3	336.25	-364.06	1061	479.23	-356.6	1054.6	224.97	NaN	NaN	NaN	-558.38	1083.7	298.55	-424.65	994.75	524.95	-440.61	984.82	167.61	-445.85	1138.2	505.88	-425.43	1128.3	186.49	-573.27	1050.7	343.82	-421.28	738.95	510.01	-364.75	659.49	474.99	-433.17	653.02	487.53	-350.15	747.48	494.99	-415.21	541.49	469.99	-403.1	549.86	342.32	-496.85	323.08	457.39	-448.31	250.65	435.01	-514.61	249.29	439.37	-431.96	323.36	452.63	-503.65	109.24	411.7	-486.19	121.37	323.38	-574.08	75.95	356	-564.91	45.727	324.24	-565.37	42.945	389.64	-388.33	33.066	433.46	-362.22	53.932	314.84	-295.45	62.19	363.34	-267.81	767.32	181.28	-192.99	713.19	242.06	-245.47	679.04	193.33	-222.95	802.7	226.24	-236.83	587.51	207.57	-213.76	592.95	329.52	-363.32	406.17	205.55	-331.8	323.31	208.76	-399.43	343.25	218.59	-299.98	386.49	201.18	-419.31	200.81	212.94	-416.85	193.51	305.79	-507.85	183.95	254.39	-514.1	153.06	282.28	-508.28	162.58	221.52	-339.56	105.13	185.82	-328.28	88.201	303.38	-252.49	88.135	255.09	-477.1	1556.2	346.6	-541.91	1287.8	346.97
